<svg width="203" height="100" viewBox="0 0 203 100" fill="none" xmlns="http://www.w3.org/2000/svg">
  <style media="(prefers-color-scheme: dark)">
    .vkidsdklogo {
      fill: #e1e3e6
    }
  </style>
  <path class="vkidsdklogo" d="M125 81H135.266V21H125V81Z" fill="black"/>
  <path class="vkidsdklogo" d="M148.55 81H171.688C189.996 81 203 68.5745 203 50.9574C203 33.4255 189.996 21 171.688 21L148.55 21V81ZM158.816 71.6383V30.3617H171.688C183.922 30.3617 192.306 38.7872 192.306 50.9574C192.306 63.2128 183.922 71.6383 171.688 71.6383H158.816Z" fill="black"/>
  <path d="M0 48C0 25.3726 0 14.0589 7.02944 7.02944C14.0589 0 25.3726 0 48 0H52C74.6274 0 85.9411 0 92.9706 7.02944C100 14.0589 100 25.3726 100 48V52C100 74.6274 100 85.9411 92.9706 92.9706C85.9411 100 74.6274 100 52 100H48C25.3726 100 14.0589 100 7.02944 92.9706C0 85.9411 0 74.6274 0 52V48Z" fill="#0077FF"/>
  <path d="M53.2084 72.0418C30.4167 72.0418 17.4168 56.4169 16.8752 30.4169H28.2918C28.6668 49.5002 37.0833 57.5835 43.7499 59.2501V30.4169H54.5003V46.8751C61.0836 46.1668 67.9995 38.6669 70.3328 30.4169H81.0831C79.2914 40.5835 71.7914 48.0835 66.4581 51.1668C71.7914 53.6668 80.3335 60.2085 83.5835 72.0418H71.7498C69.2082 64.1252 62.8753 58.0001 54.5003 57.1668V72.0418H53.2084Z" fill="white"/>
</svg>
